<?xml version="1.0" encoding="UTF-8" standalone="no"?>
<!-- Created with Inkscape (http://www.inkscape.org/) -->

<svg
   width="22.577776mm"
   height="34.324131mm"
   viewBox="0 0 22.577776 34.324131"
   version="1.1"
   id="svg682"
   xml:space="preserve"
   inkscape:export-filename="LogoYeloow.svg"
   inkscape:export-xdpi="96"
   inkscape:export-ydpi="96"
   xmlns:inkscape="http://www.inkscape.org/namespaces/inkscape"
   xmlns:sodipodi="http://sodipodi.sourceforge.net/DTD/sodipodi-0.dtd"
   xmlns="http://www.w3.org/2000/svg"
   xmlns:svg="http://www.w3.org/2000/svg"><sodipodi:namedview
     id="namedview684"
     pagecolor="#ffffff"
     bordercolor="#000000"
     borderopacity="0.25"
     inkscape:showpageshadow="2"
     inkscape:pageopacity="0.0"
     inkscape:pagecheckerboard="0"
     inkscape:deskcolor="#d1d1d1"
     inkscape:document-units="mm"
     showgrid="false" /><defs
     id="defs679" /><g
     inkscape:label="Στρώση 1"
     inkscape:groupmode="layer"
     id="layer1"
     style="display:inline"
     transform="translate(-39.325714,-159.28803)"><g
       id="g2118"
       transform="matrix(0.26458333,0,0,0.26458333,19.537909,106.14874)"><g
         id="g587"
         style="display:inline;stroke-width:4"
         transform="matrix(0.25,0,0,0.25,71.822091,206.32615)"><ellipse
           style="display:inline;fill:#ffff00;stroke-width:8.02408;stroke-linecap:square;stroke-miterlimit:0"
           id="path505-0-6-9"
           cx="204.28844"
           cy="-84.814262"
           rx="6.6600099"
           ry="55.954502"
           transform="matrix(0.7592225,0.65083116,-0.56405032,0.82574042,0,0)" /><ellipse
           style="display:inline;fill:#ffff00;stroke-width:8.02408;stroke-linecap:square;stroke-miterlimit:0"
           id="path505-0"
           cx="265.45499"
           cy="87.149048"
           rx="5.7150941"
           ry="48.015732"
           transform="matrix(0.68191868,0.731428,-0.65260525,0.75769809,0,0)" /><ellipse
           style="display:inline;fill:#ffff00;stroke-width:8.02408;stroke-linecap:square;stroke-miterlimit:0"
           id="path505"
           cx="-2.3763337"
           cy="130.64868"
           rx="5.7150941"
           ry="48.015732"
           transform="matrix(0.88691004,-0.46194219,0.55601177,0.83117442,0,0)" /><path
           d="m 13.575023,33.920251 c -1.422067,1.10916 -1.649533,3.810974 -1.109187,12.826507 1.507307,24.287906 6.029294,43.769412 14.020987,60.293142 9.698133,20.05032 23.946666,34.72544 46.215305,47.52351 5.005427,2.9009 18.457653,9.61277 20.732853,10.32378 0.796307,0.2844 1.5358,0.68256 1.62112,0.91008 0.08533,0.22752 0.312787,1.56422 0.483427,2.98623 0.654173,5.09079 -0.540334,10.72193 -3.58344,16.89345 -2.161467,4.40823 -4.9486,8.70268 -8.53204,13.19624 -7.2238,9.0724 -16.09712,23.34938 -21.387013,34.35571 -7.16688,14.95953 -12.997106,32.36491 -12.172386,36.28965 0.369706,1.6211 0.938546,2.41742 2.019226,2.7587 3.014694,0.99541 11.148533,-1.82018 14.61824,-5.09079 1.84868,-1.73485 2.644987,-3.58347 3.867907,-9.01553 2.10456,-9.44214 4.351346,-16.04026 8.247666,-24.25946 11.006293,-23.12185 28.013542,-42.06301 52.301422,-58.24545 12.96871,-8.61737 23.94659,-13.79348 35.35108,-16.58063 4.52199,-1.10916 5.28988,-1.64953 5.57435,-3.86785 0.45503,-3.15686 -1.39356,-7.70729 -4.32293,-10.6935 -1.82018,-1.87706 -2.92936,-2.36054 -5.03391,-2.133 -3.811,0.39814 -18.57147,7.65038 -30.71537,15.07327 -7.79263,4.77795 -15.32922,10.03938 -21.89894,15.3577 -2.01924,1.62108 -3.75409,2.92932 -3.7825,2.90089 -0.0572,-0.0569 0.28438,-1.16605 0.76781,-2.47429 3.46972,-9.49903 5.51744,-22.83745 5.51744,-35.77773 0,-9.2715 -0.8248,-15.69896 -3.21373,-24.88515 C 103.21835,89.57765 91.387248,72.627304 71.109422,58.037504 59.960902,50.017371 45.769276,42.850451 30.041849,37.276185 22.249209,34.517491 19.177703,33.635838 16.589623,33.465211 c -2.019227,-0.142213 -2.36052,-0.08533 -3.0146,0.45504 z m 38.365772,46.784066 c 8.901733,10.921013 17.433773,22.524613 25.823666,35.152043 10.40904,15.61365 14.36228,22.29708 17.974133,30.43097 l 1.194507,2.70181 -0.88164,-0.9954 C 94.544168,146.28733 84.675381,133.03421 81.006621,127.80122 77.508501,122.8242 67.298435,107.49494 63.373702,101.35188 62.207688,99.560143 59.164582,94.810636 56.576515,90.82901 51.485769,82.92265 45.456396,73.252997 45.456396,72.968584 c 0,-0.22752 0.255973,0.08533 6.484399,7.735733 z"
           id="path1-4"
           style="display:inline;fill:#35401c;fill-opacity:1;stroke:none;stroke-width:0.112865;stroke-dasharray:none" /><path
           d="m 174.52309,208.4483 c -10.41015,2.28728 -23.54628,6.60969 -34.77896,11.47241 -22.91179,9.88754 -40.019269,23.46712 -48.455482,38.43348 -5.56936,9.85151 -7.590293,19.37884 -7.1438,33.67883 0.235,8.10453 -0.141013,10.75201 -1.903493,13.27342 -0.939947,1.35075 -3.90088,3.54798 -9.07072,6.68172 -5.71032,3.49396 -8.953227,5.7092 -13.676573,9.43728 -8.859227,6.9519 -15.69756,14.06586 -19.504386,20.27934 -2.537947,4.17833 -2.7024,6.06938 -0.611027,7.60024 2.81992,2.08917 9.822706,3.36789 12.501613,2.3053 1.198467,-0.48628 2.349987,-1.47684 2.937427,-2.53942 0.25852,-0.45026 0.82252,-1.87306 1.269013,-3.16976 0.939947,-2.80959 1.668413,-4.39447 3.19588,-7.00592 5.216866,-8.87896 15.979519,-18.58639 28.763159,-25.97052 5.451813,-3.13376 7.660733,-3.99824 14.828029,-5.76323 15.11004,-3.71008 27.42368,-8.84293 39.12629,-16.31712 3.59541,-2.28728 9.91676,-7.11396 12.92464,-9.88752 11.72612,-10.734 19.24588,-23.25098 23.35827,-38.90174 2.04442,-7.79836 3.00796,-15.93891 3.0314,-26.02455 0.0237,-5.34899 -0.0237,-6.21348 -0.37595,-6.7898 -0.86948,-1.47683 -2.39693,-1.65692 -6.41533,-0.79244 z m -27.35312,28.618 c -3.50143,3.98023 -17.38948,20.65755 -24.4863,29.39243 -8.57725,10.5719 -13.6766,16.33512 -22.06584,24.83587 -1.362956,1.38678 -2.725916,2.71954 -3.007902,2.97167 -0.493494,0.41423 -0.47,0.34219 0.141,-0.52231 0.375986,-0.54029 2.138426,-3.09772 3.924372,-5.67316 11.46765,-16.60527 23.07631,-30.40099 35.57789,-42.32365 3.43096,-3.25982 10.8097,-9.99558 10.97423,-9.99558 0.0472,0 -0.42297,0.59433 -1.05745,1.31473 z"
           id="path1-7"
           style="display:inline;fill:#35401c;fill-opacity:1;stroke:none;stroke-width:0.0822896" /><ellipse
           style="display:inline;fill:#ea580c;fill-opacity:1;stroke:none;stroke-width:0.168499;stroke-dasharray:none"
           id="path2"
           cx="-363.02423"
           cy="-263.98904"
           rx="33.332645"
           ry="33.334019"
           transform="matrix(8.929275e-4,-0.9999996,-0.99997902,-0.00647704,0,0)" /><path
           d="m 154.48219,127.04064 c -1.10212,2.06653 -4.57393,5.42808 -10.63576,10.22244 -6.69554,5.34542 -10.49797,8.73453 -16.03625,14.43817 -10.38779,10.63576 -18.40596,21.51949 -22.8696,31.02553 -2.97585,6.39248 -3.16869,9.28563 -0.71645,11.62769 3.30645,3.19624 11.51746,5.15255 14.65858,3.52688 1.40526,-0.74394 2.75544,-2.25941 3.44424,-3.88508 0.30312,-0.68884 0.96443,-2.86558 1.48796,-4.84945 1.10214,-4.2984 1.95627,-6.72312 3.74728,-10.71841 6.11696,-13.58402 18.73656,-28.43549 33.72584,-39.73253 m 0,0 c 6.39244,-4.79436 8.9825,-6.11695 17.38639,-8.81722 17.71707,-5.67606 32.15525,-13.52889 45.87698,-24.9637 4.21575,-3.49934 11.62776,-10.883737 15.15463,-15.127017 13.74929,-16.422053 22.56647,-35.571905 27.38839,-59.516132 2.39717,-11.930786 3.52696,-24.3850923 3.55444,-39.8151986 0.0277,-8.1834664 -0.0277,-9.5060534 -0.44082,-10.3877594 -1.01949,-2.259414 -2.8105,-2.534947 -7.52221,-1.212374 -12.20627,3.499334 -27.60888,10.11224 -40.77959,17.5517466 -26.86487,15.1270134 -46.92402,35.9025594 -56.81578,58.7997454 -6.53029,15.071906 -8.89989,29.647852 -8.37636,51.525529 0.27556,12.3992 -0.16535,16.4496 -2.23191,20.30714 M 230.6133,22.639412 c -4.10555,6.089386 -20.38979,31.604172 -28.71106,44.967745 -10.05711,16.174053 -16.03629,24.991266 -25.87298,37.996653 -1.59812,2.12163 -3.19624,4.16061 -3.52688,4.54636 -0.57863,0.63373 -0.55108,0.52352 0.16533,-0.79905 0.44086,-0.82662 2.50738,-4.73926 4.60147,-8.67944 13.44624,-25.404576 27.0578,-46.510762 41.71636,-64.751349 4.02292,-4.98724 12.67474,-15.292346 12.86766,-15.292346 0.0555,0 -0.49596,0.90928 -1.2399,2.011427 z"
           id="path1-7-7"
           style="display:inline;fill:#35401c;fill-opacity:1;stroke:none;stroke-width:0.110215"
           sodipodi:nodetypes="cccccccccccccccccccccccccccccsc" /><path
           d="m 245.02766,123.03556 c -19.5022,1.5131 -40.09719,4.87554 -61.36465,10.1714 -62.7937,15.63538 -109.783882,47.07425 -141.474948,94.48475 -12.609173,18.91376 -20.006559,35.89411 -25.806772,59.34718 -4.203054,16.98035 -4.875547,24.71398 -4.371187,47.66267 0.420307,22.36028 2.35372,35.64194 7.90176,53.96728 2.85808,9.7511 9.835146,25.38647 14.794759,33.20416 12.777293,20.42685 31.691053,38.50001 53.210719,51.02512 41.526209,23.95744 89.525129,30.26203 136.515329,17.90503 28.32861,-7.48144 56.99347,-24.37774 75.3188,-44.3843 22.27621,-24.29368 39.92905,-60.94434 47.74674,-98.93998 2.43778,-11.85263 5.54803,-34.96945 5.54803,-41.10592 0,-7.39737 7.56551,-6.80895 -83.72492,-6.80895 -61.61682,0 -80.95089,0.25219 -81.70745,1.00874 -2.10152,2.10153 -1.00873,4.79148 4.119,10.33952 17.48472,18.66158 46.82207,30.68233 85.91052,35.30569 5.46397,0.58843 10.08733,1.26092 10.25545,1.42904 0.58843,0.58843 -2.3537,17.56879 -4.37117,25.47053 -6.97708,26.73146 -20.17468,47.91487 -38.50001,61.70089 -7.8177,5.96835 -22.44434,12.94542 -32.78386,15.8035 -7.73362,2.10153 -9.66704,2.26965 -24.37774,2.35372 -14.96288,0 -16.56005,-0.16812 -25.21835,-2.43778 -21.77184,-5.6321 -40.60154,-16.81224 -58.08626,-34.46507 C 91.363848,402.70706 81.276501,386.147 75.308168,367.98979 68.247022,346.63826 66.481742,313.8544 71.021048,287.79545 81.024328,230.21354 120.19682,186.58579 186.18483,159.77029 c 28.91705,-11.76856 58.67469,-18.15721 100.70528,-21.68779 14.2904,-1.2609 17.40067,-2.43777 17.40067,-6.55676 0,-6.22053 -9.24674,-8.6583 -33.20416,-8.99454 -9.24674,-0.0841 -20.93124,0.16812 -26.05896,0.50436 z"
           id="path1"
           style="display:inline;fill:#552200;stroke:none;stroke-width:0.336244" /></g></g></g></svg>
