<?xml version="1.0" encoding="UTF-8" standalone="no"?>
<!-- Created with Inkscape (http://www.inkscape.org/) -->

<svg
   width="84.375443mm"
   height="86.066132mm"
   viewBox="0 0 84.375443 86.066132"
   version="1.1"
   id="svg735"
   xml:space="preserve"
   inkscape:version="1.2 (dc2aedaf03, 2022-05-15)"
   sodipodi:docname="Handshake_1.svg"
   xmlns:inkscape="http://www.inkscape.org/namespaces/inkscape"
   xmlns:sodipodi="http://sodipodi.sourceforge.net/DTD/sodipodi-0.dtd"
   xmlns="http://www.w3.org/2000/svg"
   xmlns:svg="http://www.w3.org/2000/svg"><sodipodi:namedview
     id="namedview737"
     pagecolor="#ffffff"
     bordercolor="#000000"
     borderopacity="0.25"
     inkscape:showpageshadow="2"
     inkscape:pageopacity="0.0"
     inkscape:pagecheckerboard="0"
     inkscape:deskcolor="#d1d1d1"
     inkscape:document-units="mm"
     showgrid="false"
     inkscape:zoom="1"
     inkscape:cx="201.5"
     inkscape:cy="157.5"
     inkscape:window-width="1920"
     inkscape:window-height="1018"
     inkscape:window-x="-8"
     inkscape:window-y="-8"
     inkscape:window-maximized="1"
     inkscape:current-layer="g13248" /><defs
     id="defs732" /><g
     inkscape:groupmode="layer"
     id="layer5"
     inkscape:label="Στρώση 3"
     style="display:inline"
     transform="translate(-7.9296677,7.9672718)"><g
       id="g13248"
       transform="matrix(0.9967329,0,0,1.0167051,-4.190018,1.1904477)"
       style="stroke-width:0.993378"><circle
         style="display:inline;fill:#f8f7f2;fill-opacity:1;stroke:#214420;stroke-width:2.19729"
         id="path3701"
         cx="54.485416"
         cy="33.318752"
         r="41.22736"
         sodipodi:insensitive="true" /><path
         id="rect3729-64"
         style="fill:none;stroke:#1b4730;stroke-width:1.83983;stroke-linecap:square;stroke-linejoin:round;stroke-miterlimit:10;stroke-opacity:1"
         d="m 63.612543,31.424268 5.158266,3.287257 c 0.92709,0.590627 1.206722,1.818414 0.627182,2.752556 l -1.05022,1.692793 c -0.579579,0.934129 -1.792401,1.2106 -2.719401,0.61983 l -5.158264,-3.287256"
         sodipodi:nodetypes="cssssc" /><path
         id="rect3729-64-66"
         style="display:inline;fill:none;stroke:#1b4730;stroke-width:1.83983;stroke-linecap:square;stroke-linejoin:round;stroke-miterlimit:10;stroke-opacity:1"
         d="m 57.284613,41.518407 5.158265,3.287256 c 0.927095,0.59063 1.206722,1.818415 0.627183,2.752557 l -1.050475,1.692633 c -0.579663,0.934076 -1.792402,1.2106 -2.719398,0.619831 l -5.158266,-3.287256"
         sodipodi:nodetypes="cssssc" /><path
         id="rect3729-64-6"
         style="display:inline;fill:none;stroke:#1b4730;stroke-width:1.83983;stroke-linecap:square;stroke-linejoin:round;stroke-miterlimit:10;stroke-opacity:1"
         d="m 60.446602,36.47449 5.158266,3.287256 c 0.92709,0.590627 1.206721,1.818414 0.627176,2.752565 l -1.050215,1.692783 c -0.579578,0.93413 -1.792402,1.210601 -2.719402,0.61983 L 57.304165,41.53967"
         sodipodi:nodetypes="cssssc" /><path
         id="rect3729-64-6-2"
         style="display:inline;fill:none;stroke:#1b4730;stroke-width:1.83983;stroke-linecap:square;stroke-linejoin:round;stroke-miterlimit:10;stroke-opacity:1"
         d="m 54.115591,46.573543 5.158267,3.287257 c 0.927086,0.590624 1.206721,1.818414 0.627177,2.752564 l -1.05047,1.692625 c -0.579663,0.934076 -1.792402,1.2106 -2.719407,0.619826 l -5.158257,-3.287251"
         sodipodi:nodetypes="cssssc" /><path
         style="display:inline;fill:none;fill-opacity:1;stroke:#1b4730;stroke-width:1.83981;stroke-linecap:square;stroke-linejoin:miter;stroke-miterlimit:0;stroke-dasharray:none;stroke-opacity:1"
         d="m 38.031375,19.946933 3.915833,1.640417 2.645833,0.105833 3.122083,-0.9525 2.38125,-0.105837 2.328334,0.740833 v 0"
         id="path10136"
         sodipodi:nodetypes="ccccccc" /><path
         style="display:inline;fill:none;fill-opacity:1;stroke:#1b4730;stroke-width:1.83981;stroke-linecap:square;stroke-linejoin:round;stroke-miterlimit:10;stroke-dasharray:none;stroke-opacity:1"
         d="m 32.18415,33.969847 c 1.729624,1.086383 2.840261,2.435459 2.831062,4.259782 -0.253914,-1.927028 -1.089452,-3.368676 -2.831062,-4.259782 z"
         id="path8324"
         sodipodi:nodetypes="ccc" /><rect
         style="display:inline;fill:none;fill-opacity:1;stroke:#1b4730;stroke-width:1.7988;stroke-opacity:1"
         id="rect3704-9-9"
         width="11.418367"
         height="22.001701"
         x="-42.545639"
         y="-22.889521"
         transform="rotate(-157.80887)"
         ry="0.6656636"
         rx="0.66714144" /><rect
         style="display:inline;fill:none;fill-opacity:1;stroke:#e85e0f;stroke-width:1.7988;stroke-opacity:1"
         id="rect3704-9"
         width="11.418367"
         height="22.001701"
         x="-69.732063"
         y="-64.229462"
         transform="rotate(157.86737)"
         ry="0.66794175"
         rx="0.66943276"
         sodipodi:insensitive="true" /><path
         style="display:inline;fill:none;fill-opacity:1;stroke:#e85e0f;stroke-width:1.83981;stroke-linecap:square;stroke-linejoin:miter;stroke-miterlimit:0;stroke-dasharray:none;stroke-opacity:1"
         d="m 70.628041,21.216933 -5.55625,1.5875 -6.217709,-1.984375 c -2.471834,-0.471386 -4.961875,-1.006495 -6.746874,0.926042 -2.24315,3.524014 -5.619086,5.632046 -9.260417,7.408333 1.228012,1.681062 2.116806,3.6335 5.027083,3.96875 4.233333,-2.250412 8.466667,-2.315096 12.7,-2.910417 0.968362,0.150957 2.160382,0.451888 3.003152,1.234722 2.42289,1.403216 4.760412,2.945919 7.078104,4.521023"
         id="path10130"
         sodipodi:nodetypes="ccccccccc" /><path
         style="display:inline;fill:none;fill-opacity:1;stroke:#e85e0f;stroke-width:1.83981;stroke-linecap:square;stroke-linejoin:miter;stroke-miterlimit:0;stroke-dasharray:none;stroke-opacity:1"
         d="m 76.290124,34.181516 c -6.402917,2.69875 -6.402917,2.69875 -6.402917,2.69875 h -0.05292 z"
         id="path10132"
         sodipodi:insensitive="true" /><rect
         style="fill:none;fill-opacity:1;stroke:#e85e0f;stroke-width:1.83991;stroke-linecap:square;stroke-linejoin:round;stroke-miterlimit:10;stroke-dasharray:none;stroke-opacity:1"
         id="rect3729"
         width="5.9607854"
         height="10.085072"
         x="50.591053"
         y="10.077291"
         transform="matrix(0.83946351,0.54341606,-0.55353619,0.83282512,0,0)"
         ry="0.21790086"
         rx="0.22218335"
         sodipodi:insensitive="true" /><rect
         style="display:inline;fill:none;fill-opacity:1;stroke:#e85e0f;stroke-width:1.83987;stroke-linecap:square;stroke-linejoin:round;stroke-miterlimit:10;stroke-dasharray:none;stroke-opacity:1"
         id="rect3729-9"
         width="5.9393549"
         height="11.378091"
         x="62.088589"
         y="8.7577772"
         transform="matrix(0.8394378,0.54345578,-0.55300034,0.83318102,0,0)"
         ry="0.21811128"
         rx="0.22216666"
         sodipodi:insensitive="true" /><rect
         style="display:inline;fill:#f8f7f2;fill-opacity:1;stroke:#e85e0f;stroke-width:1.83991;stroke-linecap:square;stroke-linejoin:round;stroke-miterlimit:10;stroke-dasharray:none;stroke-opacity:1"
         id="rect3729-9-9"
         width="5.9607854"
         height="10.085072"
         x="67.876099"
         y="9.9755592"
         transform="matrix(0.83946351,0.54341606,-0.55353619,0.83282512,0,0)"
         ry="0.21790086"
         rx="0.22218335"
         sodipodi:insensitive="true" /><rect
         style="display:inline;fill:none;fill-opacity:1;stroke:#e85e0f;stroke-width:1.83987;stroke-linecap:square;stroke-linejoin:round;stroke-miterlimit:10;stroke-dasharray:none;stroke-opacity:1"
         id="rect3729-6"
         width="5.8203425"
         height="14.018191"
         x="56.426754"
         y="5.8009281"
         transform="matrix(0.8358226,0.54899962,-0.55851958,0.82949134,0,0)"
         ry="0.2160068"
         rx="0.2198776"
         sodipodi:insensitive="true" /></g></g></svg>
