<?xml version="1.0" encoding="UTF-8" standalone="no"?>
<svg
   width="1000pt"
   height="1000pt"
   preserveAspectRatio="xMidYMid"
   version="1.0"
   viewBox="0 0 1000 999.99999"
   xml:space="preserve"
   id="svg4"
   sodipodi:docname="logo_new.svg"
   inkscape:version="1.4.2 (f4327f4, 2025-05-13)"
   xmlns:inkscape="http://www.inkscape.org/namespaces/inkscape"
   xmlns:sodipodi="http://sodipodi.sourceforge.net/DTD/sodipodi-0.dtd"
   xmlns="http://www.w3.org/2000/svg"
   xmlns:svg="http://www.w3.org/2000/svg"><defs
     id="defs4" /><sodipodi:namedview
     id="namedview4"
     pagecolor="#ffffff"
     bordercolor="#000000"
     borderopacity="0.25"
     inkscape:showpageshadow="2"
     inkscape:pageopacity="0.0"
     inkscape:pagecheckerboard="0"
     inkscape:deskcolor="#d1d1d1"
     inkscape:document-units="pt"
     inkscape:zoom="0.36"
     inkscape:cx="691.66667"
     inkscape:cy="559.72222"
     inkscape:window-width="1920"
     inkscape:window-height="1017"
     inkscape:window-x="-8"
     inkscape:window-y="-8"
     inkscape:window-maximized="1"
     inkscape:current-layer="svg4" /><g
     transform="translate(63.002997,187.74872)"
     id="g4"><g
       id="g3"><path
         d="m 310.28,159.55 c -1.0666,0.83187 -1.2372,2.8582 -0.83189,9.6199 1.1305,18.216 4.522,32.827 10.516,45.22 7.2736,15.038 17.96,26.044 34.661,35.643 3.7541,2.1757 13.843,7.2096 15.55,7.7428 0.59723,0.2133 1.1518,0.51192 1.2158,0.68256 0.064,0.17064 0.23459,1.1732 0.36257,2.2397 0.49063,3.8181 -0.40525,8.0414 -2.6876,12.67 -1.6211,3.3062 -3.7114,6.527 -6.399,9.8972 -5.4178,6.8043 -12.073,17.512 -16.04,25.767 -5.3752,11.22 -9.7478,24.274 -9.1293,27.217 0.27728,1.2158 0.70391,1.8131 1.5144,2.069 2.261,0.74656 8.3614,-1.3651 10.964,-3.8181 1.3865,-1.3011 1.9837,-2.6876 2.9009,-6.7616 1.5784,-7.0816 3.2635,-12.03 6.1858,-18.195 8.2547,-17.341 21.01,-31.547 39.226,-43.684 9.7265,-6.463 17.96,-10.345 26.513,-12.435 3.3915,-0.83187 3.9674,-1.2372 4.1808,-2.9009 0.34127,-2.3676 -1.0452,-5.7805 -3.2422,-8.0201 -1.3651,-1.4078 -2.197,-1.7704 -3.7754,-1.5998 -2.8582,0.29861 -13.929,5.7378 -23.037,11.305 -5.8445,3.5835 -11.497,7.5295 -16.424,11.518 -1.5144,1.2158 -2.8156,2.197 -2.8369,2.1757 -0.0429,-0.0427 0.21329,-0.87454 0.57586,-1.8557 2.6023,-7.1243 4.1381,-17.128 4.1381,-26.833 0,-6.9536 -0.6186,-11.774 -2.4103,-18.664 -4.458,-17.256 -13.331,-29.969 -28.54,-40.911 -8.3614,-6.0151 -19.005,-11.39 -30.801,-15.571 -5.8445,-2.069 -8.1481,-2.7303 -10.089,-2.8582 -1.5144,-0.10666 -1.7704,-0.064 -2.261,0.34128 z m 28.774,35.088 c 6.6763,8.1908 13.075,16.893 19.368,26.364 7.8068,11.71 10.772,16.723 13.481,22.823 l 0.89588,2.0264 -0.66123,-0.74655 c -1.1305,-1.2798 -8.5321,-11.22 -11.284,-15.144 -2.6236,-3.7328 -10.281,-15.23 -13.225,-19.837 -0.87451,-1.3438 -3.1568,-4.9059 -5.0979,-7.8922 -3.8181,-5.9298 -8.3401,-13.182 -8.3401,-13.395 0,-0.17064 0.19198,0.064 4.8633,5.8018 z"
         fill="#35401c"
         id="path1" /><path
         d="m 430.99,290.45 c -7.8076,1.7155 -17.66,4.9573 -26.084,8.6043 -17.184,7.4156 -30.014,17.6 -36.342,28.825 -4.177,7.3886 -5.6927,14.534 -5.3578,25.259 0.17625,6.0784 -0.10576,8.064 -1.4276,9.9551 -0.70496,1.0131 -2.9257,2.661 -6.803,5.0113 -4.2827,2.6205 -6.7149,4.2819 -10.257,7.078 -6.6444,5.2139 -11.773,10.549 -14.628,15.21 -1.9035,3.1338 -2.0268,4.552 -0.45827,5.7002 2.1149,1.5669 7.367,2.5259 9.3762,1.729 0.89885,-0.36471 1.7625,-1.1076 2.2031,-1.9046 0.19389,-0.33769 0.61689,-1.4048 0.95176,-2.3773 0.70496,-2.1072 1.2513,-3.2958 2.3969,-5.2544 3.9126,-6.6592 11.985,-13.94 21.572,-19.478 4.0889,-2.3503 5.7456,-2.9987 11.121,-4.3224 11.333,-2.7826 20.568,-6.6322 29.345,-12.238 2.6966,-1.7155 7.4376,-5.3355 9.6935,-7.4156 8.7946,-8.0505 14.434,-17.438 17.519,-29.176 1.5333,-5.8488 2.256,-11.954 2.2736,-19.518 0.0178,-4.0117 -0.0178,-4.6601 -0.28196,-5.0924 -0.65211,-1.1076 -1.7977,-1.2427 -4.8115,-0.59433 z m -20.515,21.464 c -2.6261,2.9852 -13.042,15.493 -18.365,22.044 -6.4329,7.9289 -10.257,12.251 -16.549,18.627 -1.0222,1.0401 -2.0444,2.0396 -2.2559,2.2288 -0.37012,0.31067 -0.3525,0.25664 0.10575,-0.39173 0.28199,-0.40522 1.6038,-2.3233 2.9433,-4.2549 8.6007,-12.454 17.307,-22.801 26.683,-31.743 2.5732,-2.4449 8.1073,-7.4967 8.2307,-7.4967 0.0354,0 -0.31723,0.44575 -0.79309,0.98605 z"
         fill="#35401c"
         id="path2" /><ellipse
         transform="matrix(8.9293e-4,-1,-0.99998,-0.006477,0,0)"
         cx="-404.42999"
         cy="-498.22"
         rx="24.999001"
         ry="25.000999"
         fill="#ea580c"
         id="ellipse2" /><path
         d="m 415.96,229.39 c -0.82659,1.5499 -3.4304,4.0711 -7.9768,7.6668 -5.0217,4.0091 -7.8735,6.5509 -12.027,10.829 -7.7908,7.9768 -13.804,16.14 -17.152,23.269 -2.2319,4.7944 -2.3765,6.9642 -0.53734,8.7208 2.4798,2.3972 8.6381,3.8644 10.994,2.6452 1.0539,-0.55796 2.0666,-1.6946 2.5832,-2.9138 0.22734,-0.51663 0.72332,-2.1492 1.116,-3.6371 0.8266,-3.2238 1.4672,-5.0423 2.8105,-8.0388 4.5877,-10.188 14.052,-21.327 25.294,-29.799 4.7943,-3.5958 6.7369,-4.5877 13.04,-6.6129 13.288,-4.257 24.116,-10.147 34.408,-18.723 3.1618,-2.6245 8.7208,-8.1628 11.366,-11.345 10.312,-12.317 16.925,-26.679 20.541,-44.637 1.7979,-8.9481 2.6452,-18.289 2.6658,-29.861 0.0208,-6.1376 -0.0208,-7.1295 -0.33061,-7.7908 -0.76462,-1.6946 -2.1079,-1.9012 -5.6417,-0.90928 -9.1547,2.6245 -20.707,7.5842 -30.585,13.164 -20.149,11.345 -35.193,26.927 -42.612,44.1 -4.8977,11.304 -6.6749,22.236 -6.2823,38.644 0.20667,9.2994 -0.12401,12.337 -1.6739,15.23 m 57.098,-78.301 c -3.0792,4.567 -15.292,23.703 -21.533,33.726 -7.5428,12.131 -12.027,18.743 -19.405,28.497 -1.1986,1.5912 -2.3972,3.1205 -2.6452,3.4098 -0.43397,0.4753 -0.41331,0.39264 0.124,-0.59929 0.33064,-0.61996 1.8805,-3.5544 3.4511,-6.5096 10.085,-19.053 20.293,-34.883 31.287,-48.564 3.0172,-3.7404 9.5061,-11.469 9.6508,-11.469 0.0416,0 -0.37197,0.68196 -0.92993,1.5086 z"
         fill="#35401c"
         id="path3" /></g><path
       d="m 483.87,226.39 c -14.627,1.1348 -30.073,3.6567 -46.023,7.6286 -47.095,11.727 -82.338,35.306 -106.11,70.864 -9.4569,14.185 -15.005,26.921 -19.355,44.51 -3.1523,12.735 -3.6567,18.535 -3.2784,35.747 0.31523,16.77 1.7653,26.731 5.9263,40.475 2.1436,7.3133 7.3764,19.04 11.096,24.903 9.583,15.32 23.768,28.875 39.908,38.269 31.145,17.968 67.144,22.697 102.39,13.429 21.246,-5.6111 42.745,-18.283 56.489,-33.288 16.707,-18.22 29.947,-45.708 35.81,-74.205 1.8283,-8.8895 4.161,-26.227 4.161,-30.829 0,-5.548 5.6741,-5.1067 -62.794,-5.1067 -46.213,0 -60.713,0.18914 -61.281,0.75655 -1.5761,1.5762 -0.75655,3.5936 3.0892,7.7546 13.114,13.996 35.117,23.012 64.433,26.479 4.098,0.44132 7.5655,0.94569 7.6916,1.0718 0.44132,0.44132 -1.7653,13.177 -3.2784,19.103 -5.2328,20.049 -15.131,35.936 -28.875,46.276 -5.8633,4.4763 -16.833,9.7091 -24.588,11.853 -5.8002,1.5762 -7.2503,1.7022 -18.283,1.7653 -11.222,0 -12.42,-0.12609 -18.914,-1.8283 -16.329,-4.2241 -30.451,-12.609 -43.565,-25.849 -9.8982,-10.024 -17.464,-22.444 -21.94,-36.062 -5.2959,-16.014 -6.6198,-40.602 -3.2153,-60.146 7.5025,-43.186 36.882,-75.907 86.373,-96.019 21.688,-8.8264 44.006,-13.618 75.529,-16.266 10.718,-0.94568 13.05,-1.8283 13.05,-4.9176 0,-4.6654 -6.935,-6.4937 -24.903,-6.7459 -6.935,-0.0631 -15.698,0.12609 -19.544,0.37827 z"
       fill="#552200"
       id="path4" /></g><ellipse
     style="fill:none;stroke-width:0.0992123;stroke:#000000;stroke-opacity:1"
     id="path5"
     cx="110.41667"
     cy="210.41666"
     rx="216.66666"
     ry="395.83331" /></svg>
