<?xml version="1.0" encoding="UTF-8" standalone="no"?>
<!-- Created with Inkscape (http://www.inkscape.org/) -->

<svg
   version="1.1"
   id="svg1"
   width="162.24619"
   height="262.12024"
   viewBox="0 0 162.24619 262.12024"
   sodipodi:docname="logo.svg"
   inkscape:version="1.4 (86a8ad7, 2024-10-11)"
   xmlns:inkscape="http://www.inkscape.org/namespaces/inkscape"
   xmlns:sodipodi="http://sodipodi.sourceforge.net/DTD/sodipodi-0.dtd"
   xmlns="http://www.w3.org/2000/svg"
   xmlns:svg="http://www.w3.org/2000/svg">
  <sodipodi:namedview
     id="namedview1"
     pagecolor="#ffffff"
     bordercolor="#000000"
     borderopacity="0.25"
     inkscape:showpageshadow="2"
     inkscape:pageopacity="0.0"
     inkscape:pagecheckerboard="0"
     inkscape:deskcolor="#d1d1d1"
     inkscape:zoom="0.85"
     inkscape:cx="406.47059"
     inkscape:cy="145.29412"
     inkscape:window-width="1920"
     inkscape:window-height="1017"
     inkscape:window-x="-8"
     inkscape:window-y="-8"
     inkscape:window-maximized="1"
     inkscape:current-layer="g1"
     showgrid="false"
     inkscape:clip-to-page="false" />
  <defs
     id="defs1">
    <rect
       x="226.15952"
       y="691.04297"
       width="213.59509"
       height="55.283436"
       id="rect6" />
  </defs>
  <g
     id="g1"
     transform="translate(-96.984768,-327.87975)">
    <text
       xml:space="preserve"
       style="font-style:normal;font-variant:normal;font-weight:bold;font-stretch:normal;font-size:140px;font-family:Arial;-inkscape-font-specification:'Arial, Bold';font-variant-ligatures:normal;font-variant-caps:normal;font-variant-numeric:normal;font-variant-east-asian:normal;text-align:start;writing-mode:lr-tb;direction:ltr;text-anchor:start;fill:#4a773c;fill-opacity:1"
       x="878.25275"
       y="562.88586"
       id="text4"><tspan
         id="tspan4"
         x="878.25275"
         y="562.88586" /></text>
    <text
       xml:space="preserve"
       id="text6"
       style="font-style:normal;font-variant:normal;font-weight:bold;font-stretch:normal;font-size:53.3333px;font-family:Arial;-inkscape-font-specification:'Arial, Bold';font-variant-ligatures:normal;font-variant-caps:normal;font-variant-numeric:normal;font-variant-east-asian:normal;text-align:start;writing-mode:lr-tb;direction:ltr;white-space:pre;shape-inside:url(#rect6);display:inline;fill:#4a773c;fill-opacity:1" />
    <ellipse
       style="fill:#ea773c;fill-opacity:1;stroke-width:2;stroke-dasharray:none"
       id="path11"
       cx="199.20981"
       cy="358.66257"
       rx="20.103067"
       ry="30.782822" />
    <ellipse
       style="fill:#4a773c;fill-opacity:1;stroke-width:1.85774;stroke-dasharray:none"
       id="path11-8-1"
       cx="458.00748"
       cy="-11.953736"
       rx="18.684559"
       ry="28.575676"
       transform="matrix(0.4899789,0.87173429,-0.81631406,0.57760831,0,0)" />
    <ellipse
       style="fill:#1b4730;fill-opacity:1;stroke-width:1.85774;stroke-dasharray:none"
       id="path11-8-1-23"
       cx="-140.61385"
       cy="442.79608"
       rx="18.684559"
       ry="28.575676"
       transform="matrix(0.81068787,-0.58547859,0.66627366,0.74570732,0,0)" />
    <ellipse
       style="fill:#4a773c;fill-opacity:1;stroke-width:1.64279;stroke-dasharray:none"
       id="path11-8-1-23-8"
       cx="-178.31313"
       cy="484.69385"
       rx="16.57819"
       ry="25.184786"
       transform="matrix(0.81932091,-0.57333519,0.67789982,0.73515429,0,0)" />
    <ellipse
       style="fill:#1b4730;fill-opacity:1;stroke-width:1.64279;stroke-dasharray:none"
       id="path11-8-1-23-8-8"
       cx="551.64136"
       cy="-52.25827"
       rx="16.57819"
       ry="25.184786"
       transform="matrix(0.33899904,0.94078672,-0.88690992,0.46194241,0,0)" />
    <ellipse
       style="fill:#ea773c;fill-opacity:1;stroke-width:1.85774;stroke-dasharray:none"
       id="path11-8-1-2"
       cx="501.44226"
       cy="19.155861"
       rx="18.684559"
       ry="28.575676"
       transform="matrix(0.4899789,0.87173429,-0.81631406,0.57760831,0,0)" />
    <rect
       style="fill:#4a773c;fill-opacity:1;stroke-width:2.22427;stroke-dasharray:none"
       id="rect11"
       width="12.564417"
       height="118.10552"
       x="188.6454"
       y="471.89447" />
    <rect
       style="fill:#1b4730;fill-opacity:1;stroke-width:1.83533;stroke-dasharray:none"
       id="rect11-5"
       width="12.564417"
       height="80.41227"
       x="213.38405"
       y="509.58771" />
    <path
       style="fill:#1b4730;fill-opacity:1;stroke-width:2;stroke-dasharray:none"
       d="m 171.69884,582.37648 c -14.39728,-4.64489 -30.40725,-14.59934 -57.08217,-55.52741 -8.6624,-13.0386 -12.08412,-28.40639 -15.547674,-43.75559 -3.803415,-14.88134 -1.214952,-29.76269 -1.332658,-44.64403 7.411362,16.09909 17.849052,30.68502 33.538552,42.64504 l 32.428,22.87729 c 20.47796,18.94233 23.70029,43.13035 21.29423,62.18712 -0.55393,4.38739 -1.4062,8.5028 -2.41491,12.2196 -9.26504,-15.41368 -16.42826,-30.47706 -28.87425,-46.4209 -6.55881,-8.42446 -14.23655,-19.2411 -24.20995,-27.5416 l 1.11055,3.10954 13.99291,21.54463 12.88235,20.8783 c 7.69994,11.41487 15.19136,25.33061 14.21502,32.42801 z"
       id="path12" />
  </g>
</svg>
