<?xml version="1.0" encoding="UTF-8" standalone="no"?>
<svg
   version="1.0"
   width="256pt"
   height="389.18698pt"
   viewBox="0 0 256 389.18698"
   preserveAspectRatio="xMidYMid"
   id="svg1"
   sodipodi:docname="Geodora_logo.svg"
   xml:space="preserve"
   inkscape:version="1.4.2 (f4327f4, 2025-05-13)"
   inkscape:export-filename="Geodora_logo.png"
   inkscape:export-xdpi="96"
   inkscape:export-ydpi="96"
   xmlns:inkscape="http://www.inkscape.org/namespaces/inkscape"
   xmlns:sodipodi="http://sodipodi.sourceforge.net/DTD/sodipodi-0.dtd"
   xmlns="http://www.w3.org/2000/svg"
   xmlns:svg="http://www.w3.org/2000/svg"><defs
     id="defs1" /><sodipodi:namedview
     id="namedview1"
     pagecolor="#ffffff"
     bordercolor="#000000"
     borderopacity="0.25"
     inkscape:showpageshadow="2"
     inkscape:pageopacity="0.0"
     inkscape:pagecheckerboard="0"
     inkscape:deskcolor="#d1d1d1"
     inkscape:document-units="pt"
     showgrid="false"
     inkscape:zoom="1"
     inkscape:cx="464.5"
     inkscape:cy="365.5"
     inkscape:window-width="1920"
     inkscape:window-height="1017"
     inkscape:window-x="-8"
     inkscape:window-y="-8"
     inkscape:window-maximized="1"
     inkscape:current-layer="layer1" /><g
     inkscape:groupmode="layer"
     id="layer1"
     inkscape:label="Layer 1"
     style="display:inline"
     transform="translate(-309.00001,-117.65626)"><path
       d="m 310.28188,159.55067 c -1.06655,0.83187 -1.23715,2.85823 -0.83189,9.61988 1.13048,18.21593 4.52197,32.82706 10.51574,45.21986 7.2736,15.03774 17.96,26.04408 34.66148,35.64263 3.75407,2.17568 13.84324,7.20958 15.54964,7.74284 0.59723,0.2133 1.15185,0.51192 1.21584,0.68256 0.064,0.17064 0.23459,1.17316 0.36257,2.23967 0.49063,3.81809 -0.40525,8.04145 -2.68758,12.67009 -1.6211,3.30617 -3.71145,6.52701 -6.39903,9.89718 -5.41785,6.8043 -12.07284,17.51203 -16.04026,25.76678 -5.37516,11.21965 -9.74783,24.27368 -9.12929,27.21724 0.27728,1.21582 0.70391,1.81306 1.51442,2.06902 2.26102,0.74656 8.3614,-1.36513 10.96368,-3.81809 1.38651,-1.30114 1.98374,-2.6876 2.90093,-6.76165 1.57842,-7.0816 3.26351,-12.03019 6.18575,-18.19459 8.25472,-17.34139 21.01016,-31.54726 39.22607,-43.68409 9.72653,-6.46303 17.95994,-10.34511 26.51331,-12.43547 3.39149,-0.83187 3.96741,-1.23715 4.18076,-2.90089 0.34127,-2.36765 -1.04517,-5.78047 -3.2422,-8.02013 -1.36513,-1.40779 -2.19702,-1.7704 -3.77543,-1.59975 -2.85825,0.29861 -13.9286,5.73779 -23.03653,11.30496 -5.84447,3.58346 -11.49691,7.52953 -16.4242,11.51827 -1.51443,1.21581 -2.81557,2.19699 -2.83688,2.17567 -0.0429,-0.0427 0.21329,-0.87454 0.57586,-1.85572 2.60229,-7.12427 4.13808,-17.12809 4.13808,-26.8333 0,-6.95362 -0.6186,-11.77422 -2.4103,-18.66386 -4.45804,-17.25606 -13.33137,-29.96882 -28.53974,-40.91117 -8.36139,-6.0151 -19.00511,-11.39029 -30.80068,-15.57099 -5.84448,-2.06902 -8.14811,-2.73026 -10.08917,-2.85823 -1.51442,-0.10666 -1.77039,-0.064 -2.26095,0.34128 z m 28.77433,35.08805 c 6.6763,8.19076 13.07533,16.89346 19.36775,26.36403 7.80678,11.71024 10.77171,16.72281 13.4806,22.82323 l 0.89588,2.02636 -0.66123,-0.74655 c -1.13047,-1.27981 -8.53206,-11.21965 -11.28363,-15.14439 -2.62359,-3.73277 -10.28114,-15.22971 -13.22469,-19.83701 -0.87451,-1.3438 -3.15684,-4.90593 -5.09789,-7.89215 -3.81806,-5.92977 -8.34009,-13.18201 -8.34009,-13.39532 0,-0.17064 0.19198,0.064 4.8633,5.8018 z"
       id="path1-4"
       style="display:inline;fill:#35401c;fill-opacity:1;stroke:none;stroke-width:0.0211622;stroke-dasharray:none" /><path
       d="m 430.99293,290.44671 c -7.80761,1.71546 -17.65971,4.95727 -26.08422,8.60431 -17.18384,7.41565 -30.01445,17.60034 -36.34161,28.82511 -4.17702,7.38863 -5.69272,14.53413 -5.35785,25.25912 0.17625,6.0784 -0.10576,8.06401 -1.42762,9.95507 -0.70496,1.01306 -2.92566,2.66098 -6.80304,5.01129 -4.28274,2.62047 -6.71492,4.2819 -10.25743,7.07796 -6.64442,5.21392 -11.77317,10.54939 -14.62829,15.2095 -1.90346,3.13375 -2.0268,4.55204 -0.45827,5.70018 2.11494,1.56688 7.36703,2.52592 9.37621,1.72898 0.89885,-0.36471 1.76249,-1.10763 2.20307,-1.90457 0.19389,-0.33769 0.61689,-1.40479 0.95176,-2.37732 0.70496,-2.10719 1.25131,-3.29585 2.39691,-5.25444 3.91265,-6.65922 11.98464,-13.93979 21.57237,-19.47789 4.08886,-2.35032 5.74555,-2.99868 11.12102,-4.32242 11.33253,-2.78256 20.56776,-6.6322 29.34472,-12.23784 2.69656,-1.71546 7.43757,-5.33547 9.69348,-7.41564 8.79459,-8.0505 14.43441,-17.43824 17.5187,-29.17631 1.53332,-5.84877 2.25597,-11.95418 2.27355,-19.51841 0.0178,-4.01174 -0.0178,-4.66011 -0.28196,-5.09235 -0.65211,-1.10762 -1.7977,-1.24269 -4.8115,-0.59433 z m -20.51484,21.4635 c -2.62607,2.98517 -13.04211,15.49316 -18.36472,22.04432 -6.43294,7.92893 -10.25745,12.25134 -16.54938,18.62691 -1.02222,1.04008 -2.04444,2.03965 -2.25593,2.22875 -0.37012,0.31067 -0.3525,0.25664 0.10575,-0.39173 0.28199,-0.40522 1.60382,-2.32329 2.94328,-4.25487 8.60074,-12.45396 17.30723,-22.80075 26.68342,-31.74274 2.57322,-2.44487 8.10727,-7.49669 8.23067,-7.49669 0.0354,0 -0.31723,0.44575 -0.79309,0.98605 z"
       id="path1-7"
       style="display:inline;fill:#35401c;fill-opacity:1;stroke:none;stroke-width:0.0154293" /><path
       d="m 497.73648,118.25284 c -9.1547,2.6245 -20.70666,7.58418 -30.58469,13.16381 -20.14866,11.34526 -35.19302,26.92692 -42.61184,44.09981 -4.89772,11.30393 -6.67492,22.23589 -6.28227,38.64415 0.20667,9.2994 -0.12401,12.3372 -1.67393,15.23035 -0.82659,1.5499 -3.43045,4.07106 -7.97682,7.66683 -5.02166,4.00907 -7.87348,6.5509 -12.02719,10.82863 -7.79084,7.97682 -13.80447,16.13962 -17.1522,23.26915 -2.23189,4.79436 -2.37652,6.96422 -0.53734,8.72077 2.47984,2.39718 8.6381,3.86441 10.99394,2.64516 1.05394,-0.55796 2.06658,-1.69456 2.58318,-2.91381 0.22734,-0.51663 0.72332,-2.14919 1.11597,-3.63709 0.8266,-3.2238 1.4672,-5.04234 2.81046,-8.03881 4.58772,-10.18801 14.05242,-21.32662 25.29438,-29.7994 4.79433,-3.59577 6.73687,-4.58771 13.03979,-6.61291 13.2878,-4.25705 24.11644,-10.14667 34.40774,-18.72278 3.16181,-2.6245 8.72082,-8.1628 11.36597,-11.34526 10.31197,-12.31654 16.92485,-26.67893 20.54129,-44.6371 1.79788,-8.94809 2.64522,-18.28882 2.66583,-29.8614 0.0208,-6.1376 -0.0208,-7.12954 -0.33061,-7.79082 -0.76462,-1.69456 -2.10788,-1.90121 -5.64166,-0.90928 z m -24.0544,32.8372 c -3.07916,4.56704 -15.29234,23.70313 -21.53329,33.72581 -7.54284,12.13054 -12.02722,18.74345 -19.40474,28.49749 -1.19859,1.59122 -2.39718,3.12046 -2.64516,3.40977 -0.43397,0.4753 -0.41331,0.39264 0.124,-0.59929 0.33064,-0.61996 1.88053,-3.55444 3.4511,-6.50958 10.08468,-19.05343 20.29335,-34.88307 31.28727,-48.56351 3.01719,-3.74043 9.50606,-11.46926 9.65075,-11.46926 0.0416,0 -0.37197,0.68196 -0.92993,1.50857 z"
       id="path1-7-7"
       style="display:inline;fill:#35401c;fill-opacity:1;stroke:none;stroke-width:0.0206653" /><circle
       style="display:inline;fill:#ea580c;fill-opacity:1;stroke:none;stroke-width:0.0478042;stroke-dasharray:none"
       id="path2"
       cx="511.08173"
       cy="267.48871"
       r="37.827526" /><path
       d="m 483.87136,226.38715 c -14.62665,1.13483 -30.07289,3.65666 -46.02349,7.62855 -47.09527,11.72654 -82.33791,35.30569 -106.10621,70.86357 -9.45688,14.18532 -15.00492,26.92058 -19.35508,44.51038 -3.15229,12.73527 -3.65666,18.53549 -3.27839,35.74701 0.31523,16.77021 1.76529,26.73145 5.92632,40.47546 2.14356,7.31332 7.37636,19.03985 11.09607,24.90312 9.58297,15.32014 23.76829,28.87501 39.90804,38.26884 31.14466,17.96808 67.14385,22.69652 102.3865,13.42877 21.24646,-5.61108 42.7451,-18.2833 56.4891,-33.28822 16.70716,-18.22026 29.94679,-45.70826 35.81006,-74.20499 1.82833,-8.88947 4.16102,-26.22709 4.16102,-30.82944 0,-5.54803 5.67413,-5.10671 -62.79369,-5.10671 -46.21262,0 -60.71317,0.18914 -61.28059,0.75655 -1.57614,1.57615 -0.75655,3.59361 3.08925,7.75464 13.11354,13.99619 35.11655,23.01175 64.43289,26.47927 4.09798,0.44132 7.5655,0.94569 7.69159,1.07178 0.44132,0.44132 -1.76528,13.17659 -3.27838,19.1029 -5.23281,20.04859 -15.13101,35.93615 -28.87501,46.27567 -5.86327,4.47626 -16.83325,9.70906 -24.58789,11.85262 -5.80022,1.57615 -7.25028,1.70224 -18.28331,1.76529 -11.22216,0 -12.42004,-0.12609 -18.91376,-1.82833 -16.32888,-4.22408 -30.45116,-12.60918 -43.5647,-25.84881 -9.8982,-10.02429 -17.46371,-22.44433 -21.93996,-36.06224 -5.29586,-16.01365 -6.61982,-40.60154 -3.21534,-60.14576 7.50246,-43.18643 36.88183,-75.90724 86.37284,-96.01887 21.68779,-8.82642 44.00602,-13.61791 75.52896,-16.26584 10.7178,-0.94568 13.0505,-1.82833 13.0505,-4.91757 0,-4.6654 -6.93505,-6.49373 -24.90312,-6.74591 -6.93505,-0.0631 -15.69843,0.12609 -19.54422,0.37827 z"
       id="path1"
       style="display:inline;fill:#552200;stroke:none;stroke-width:0.0630459" /></g></svg>
